<svg xmlns="http://www.w3.org/2000/svg" width="24" height="24" viewBox="0 0 24 24" fill="none" stroke="currentColor" stroke-width="2" stroke-linecap="round" stroke-linejoin="round">
  <g transform="translate(2 2.5)">
    <path d="M0 8c0-0.77 0.013-1.523 0.04-2.25 0.083-2.373 0.125-3.56 1.09-4.533 0.965-0.972 2.186-1.024 4.626-1.129 1.414-0.059 2.829-0.089 4.244-0.088 1.48 0 2.905 0.03 4.244 0.088 2.44 0.105 3.66 0.157 4.626 1.13 0.965 0.972 1.007 2.159 1.09 4.532 0.053 1.5 0.053 3 0 4.5-0.083 2.373-0.125 3.56-1.09 4.533-0.965 0.972-2.186 1.024-4.626 1.129q-1.102 0.047-2.275 0.07c-0.74 0.014-1.111 0.02-1.437 0.145-0.326 0.125-0.6 0.358-1.148 0.828l-2.179 1.87c-0.217 0.186-0.521 0.228-0.78 0.109-0.259-0.119-0.425-0.379-0.425-0.664l0-2.348-0.244-0.01c-2.44-0.105-3.66-0.157-4.626-1.13-0.965-0.972-1.007-2.159-1.09-4.532-0.027-0.75-0.04-1.5-0.04-2.25"/>
  </g>
  <g transform="translate(7.75 10.25)">
    <path d="M4.376 0.25l-0.126 0m-3.876 0l-0.124 0m8.125 0l-0.125 0"/>
  </g>
</svg>
