<svg xmlns="http://www.w3.org/2000/svg" width="24" height="24" viewBox="0 0 24 24" fill="none" stroke="currentColor" stroke-width="2" stroke-linecap="round" stroke-linejoin="round">
  <g transform="translate(2 3)">
    <path d="M3.333 0c2.46-0.003 4.836 0.887 6.667 2.5l0 15.5c-1.844-1.617-4.214-2.506-6.667-2.5-1.562 0-2.343 0-2.688-0.22-0.176-0.102-0.322-0.249-0.424-0.425-0.221-0.345-0.221-0.96-0.221-2.192l0-9.26c0-1.428 0-2.141 0.549-2.72 0.548-0.579 1.11-0.609 2.234-0.668q0.273-0.015 0.55-0.015m13.334 0c-2.453-0.006-4.823 0.883-6.667 2.5l0 15.5c1.844-1.617 4.214-2.506 6.667-2.5 1.562 0 2.343 0 2.688-0.22 0.207-0.133 0.291-0.218 0.424-0.425 0.221-0.345 0.221-0.96 0.221-2.192l0-9.26c0-1.428 0-2.141-0.549-2.72-0.549-0.579-1.11-0.609-2.234-0.668q-0.273-0.015-0.55-0.015"/>
  </g>
  <g transform="translate(5 7.32)">
    <path d="M14 0.005c-0.669-0.021-1.339 0.022-2 0.13m2 3.55q-0.166-0.005-0.333-0.005c-1.254-0.003-2.498 0.228-3.667 0.681m4 2.819q-0.166-0.005-0.333-0.005c-1.254-0.003-2.497 0.228-3.667 0.68m-10-7.85c0.669-0.021 1.339 0.022 2 0.13m-2 3.55q0.166-0.005 0.333-0.005c1.254-0.003 2.498 0.228 3.667 0.681m-4 2.819q0.166-0.005 0.333-0.005c1.254-0.003 2.497 0.228 3.667 0.68"/>
  </g>
</svg>
