<svg xmlns="http://www.w3.org/2000/svg" width="24" height="24" viewBox="0 0 24 24" fill="none" stroke="currentColor" stroke-width="2" stroke-linecap="round" stroke-linejoin="round">
  <g transform="translate(5 5)">
    <path d="M0 0.828l2.7 0m3.3 0l-1.5 0m-1.8 0l1.8 0m-1.8 0l0-0.828m1.8 0.828c-0.316 1.131-0.98 2.201-1.736 3.141m-1.928 2.031c0.692-0.628 1.336-1.307 1.928-2.031m0 0c-0.385-0.453-0.925-1.184-1.08-1.515m1.08 1.514l1.157 1.203m4.579 8.828l0.833-2m4.167 2l-0.833-2m-3.334 0l1.667-4 1.667 4m-3.334 0l3.334 0"/>
  </g>
  <g transform="translate(2 2)">
    <path d="M12 8l0-2c0-2.828 0-4.243-0.879-5.121-0.878-0.879-2.293-0.879-5.121-0.879-2.828 0-4.243 0-5.121 0.879-0.879 0.878-0.879 2.293-0.879 5.121 0 2.828 0 4.243 0.879 5.121 0.878 0.879 2.293 0.879 5.121 0.879l2 0"/>
  </g>
  <g transform="translate(4 4)">
    <path d="M6 12c0-2.828 0-4.243 0.879-5.121 0.878-0.879 2.293-0.879 5.121-0.879 2.828 0 4.243 0 5.121 0.879 0.879 0.878 0.879 2.293 0.879 5.121 0 2.828 0 4.243-0.879 5.121-0.878 0.879-2.293 0.879-5.121 0.879-2.828 0-4.243 0-5.121-0.879-0.879-0.878-0.879-2.293-0.879-5.121m-6 0.5c0 1.404 0 2.107 0.337 2.611 0.146 0.218 0.334 0.406 0.552 0.552 0.504 0.337 1.207 0.337 2.611 0.337m12.5-12.5c0-1.404 0-2.107-0.337-2.611-0.146-0.218-0.334-0.406-0.552-0.552-0.504-0.337-1.207-0.337-2.611-0.337"/>
  </g>
</svg>
